<svg id="Layer_1" data-name="Layer 1" xmlns="http://www.w3.org/2000/svg" xmlns:xlink="http://www.w3.org/1999/xlink" viewBox="0 0 1920 2535"><defs><style>.cls-1,.cls-4{fill:none;}.cls-2{clip-path:url(#clip-path);}.cls-3{fill:#22884a;}.cls-4{stroke:#24964d;stroke-miterlimit:10;stroke-width:4px;}.cls-5{fill:#24964d;}</style><clipPath id="clip-path"><rect class="cls-1" width="1920" height="2535"/></clipPath></defs><g id="Layer_2" data-name="Layer 2"><g class="cls-2"><rect class="cls-3" x="1300.4" y="106.2" width="619.6" height="746.8"/></g><g class="cls-2"><circle class="cls-3" cx="162.8" cy="2082.1" r="443.4"/></g><g class="cls-2"><polygon class="cls-3" points="0 1104.4 973.7 604.2 0 90.3 0 1104.4"/></g><g class="cls-2"><line class="cls-4" x1="1587.6" y1="153" x2="1544.8" y2="225.6"/></g><g class="cls-2"><line class="cls-4" x1="1609" y1="342.3" x2="1566.2" y2="414.9"/></g><g class="cls-2"><line class="cls-4" x1="1281.1" y1="181.4" x2="1238.3" y2="253.9"/></g><g class="cls-2"><rect class="cls-5" x="1282" y="251.9" width="37.5" height="37.5"/></g><g class="cls-2"><polygon class="cls-5" points="1495.7 324.7 1553.9 339.7 1538.4 282.3 1495.7 324.7"/></g><g class="cls-2"><path class="cls-5" d="M1465.7,212.1h0a25.12,25.12,0,0,1-25.1-25.1h0a25.12,25.12,0,0,1,25.1-25.1h0a25.12,25.12,0,0,1,25.1,25.1h0A25.05,25.05,0,0,1,1465.7,212.1Z"/></g></g></svg>