<?xml version="1.0" encoding="utf-8"?>
<!-- Generator: Adobe Illustrator 24.1.2, SVG Export Plug-In . SVG Version: 6.00 Build 0)  -->
<svg version="1.1" id="Layer_1" xmlns="http://www.w3.org/2000/svg" xmlns:xlink="http://www.w3.org/1999/xlink" x="0px" y="0px"
	 viewBox="0 0 1920 2535" style="enable-background:new 0 0 1920 2535;" xml:space="preserve">
<style type="text/css">
	.st0{clip-path:url(#SVGID_2_);}
	.st1{fill:#BBFFD3;}
	.st2{clip-path:url(#SVGID_4_);}
	.st3{clip-path:url(#SVGID_6_);}
	.st4{clip-path:url(#SVGID_8_);}
	.st5{fill:none;stroke:#69FF9B;stroke-width:4;stroke-miterlimit:10;}
	.st6{clip-path:url(#SVGID_10_);}
	.st7{clip-path:url(#SVGID_12_);}
	.st8{clip-path:url(#SVGID_14_);}
	.st9{fill:#69FF9B;}
	.st10{clip-path:url(#SVGID_16_);}
	.st11{clip-path:url(#SVGID_18_);}
</style>
<g id="Layer_2_1_">
	<g>
		<defs>
			<rect id="SVGID_1_" width="1920" height="2535"/>
		</defs>
		<clipPath id="SVGID_2_">
			<use xlink:href="#SVGID_1_"  style="overflow:visible;"/>
		</clipPath>
		<g class="st0">
			<rect x="1300.4" y="106.2" class="st1" width="619.6" height="746.8"/>
		</g>
	</g>
	<g>
		<defs>
			<rect id="SVGID_3_" width="1920" height="2535"/>
		</defs>
		<clipPath id="SVGID_4_">
			<use xlink:href="#SVGID_3_"  style="overflow:visible;"/>
		</clipPath>
		<g class="st2">
			<circle class="st1" cx="162.8" cy="2082.1" r="443.4"/>
		</g>
	</g>
	<g>
		<defs>
			<rect id="SVGID_5_" width="1920" height="2535"/>
		</defs>
		<clipPath id="SVGID_6_">
			<use xlink:href="#SVGID_5_"  style="overflow:visible;"/>
		</clipPath>
		<g class="st3">
			<polygon class="st1" points="0,1104.4 973.7,604.2 0,90.3 			"/>
		</g>
	</g>
	<g>
		<defs>
			<rect id="SVGID_7_" width="1920" height="2535"/>
		</defs>
		<clipPath id="SVGID_8_">
			<use xlink:href="#SVGID_7_"  style="overflow:visible;"/>
		</clipPath>
		<g class="st4">
			<line class="st5" x1="1587.6" y1="153" x2="1544.8" y2="225.6"/>
		</g>
	</g>
	<g>
		<defs>
			<rect id="SVGID_9_" width="1920" height="2535"/>
		</defs>
		<clipPath id="SVGID_10_">
			<use xlink:href="#SVGID_9_"  style="overflow:visible;"/>
		</clipPath>
		<g class="st6">
			<line class="st5" x1="1609" y1="342.3" x2="1566.2" y2="414.9"/>
		</g>
	</g>
	<g>
		<defs>
			<rect id="SVGID_11_" width="1920" height="2535"/>
		</defs>
		<clipPath id="SVGID_12_">
			<use xlink:href="#SVGID_11_"  style="overflow:visible;"/>
		</clipPath>
		<g class="st7">
			<line class="st5" x1="1281.1" y1="181.4" x2="1238.3" y2="253.9"/>
		</g>
	</g>
	<g>
		<defs>
			<rect id="SVGID_13_" width="1920" height="2535"/>
		</defs>
		<clipPath id="SVGID_14_">
			<use xlink:href="#SVGID_13_"  style="overflow:visible;"/>
		</clipPath>
		<g class="st8">
			<rect x="1282" y="251.9" class="st9" width="37.5" height="37.5"/>
		</g>
	</g>
	<g>
		<defs>
			<rect id="SVGID_15_" width="1920" height="2535"/>
		</defs>
		<clipPath id="SVGID_16_">
			<use xlink:href="#SVGID_15_"  style="overflow:visible;"/>
		</clipPath>
		<g class="st10">
			<polygon class="st9" points="1495.7,324.7 1553.9,339.7 1538.4,282.3 			"/>
		</g>
	</g>
	<g>
		<defs>
			<rect id="SVGID_17_" width="1920" height="2535"/>
		</defs>
		<clipPath id="SVGID_18_">
			<use xlink:href="#SVGID_17_"  style="overflow:visible;"/>
		</clipPath>
		<g class="st11">
			<path class="st9" d="M1465.7,212.1L1465.7,212.1c-13.9,0-25.1-11.2-25.1-25.1l0,0c0-13.9,11.2-25.1,25.1-25.1l0,0
				c13.9,0,25.1,11.2,25.1,25.1l0,0c0,13.8-11.2,25.1-25,25.1C1465.8,212.1,1465.7,212.1,1465.7,212.1z"/>
		</g>
	</g>
</g>
</svg>
