<svg xmlns="http://www.w3.org/2000/svg" xmlns:xlink="http://www.w3.org/1999/xlink" width="500" height="400" viewBox="0 0 500 400"><defs><style>.cls-1,.cls-2,.cls-3,.cls-4,.cls-5{fill:#fff;}.cls-1{filter:url(#luminosity-invert-noclip);}.cls-2{filter:url(#luminosity-invert-noclip-2);}.cls-3{filter:url(#luminosity-invert-noclip-3);}.cls-4{filter:url(#luminosity-invert-noclip-4);}.cls-6{fill:#e63b30;}.cls-7{fill:#057dc1;}.cls-8{mask:url(#mask);}.cls-9{mask:url(#mask-2);}.cls-10{mask:url(#mask-3);}.cls-11{mask:url(#mask-4);}</style><filter id="luminosity-invert-noclip" x="219.26" y="188.87" width="22.66" height="28.8" filterUnits="userSpaceOnUse" color-interpolation-filters="sRGB"><feColorMatrix values="-1 0 0 0 1 0 -1 0 0 1 0 0 -1 0 1 0 0 0 1 0" result="invert"/><feFlood flood-color="#fff" result="bg"/><feBlend in="invert" in2="bg"/></filter><mask id="mask" x="219.26" y="188.87" width="22.66" height="28.8" maskUnits="userSpaceOnUse"><path class="cls-1" d="M228.67,197.88q.35-4.44,3.62-3.72c1,.67,1.64,1.8,1.47,3.89,0,.64-.7.95-2,1l-2.05.11C228.91,199,228.54,198.63,228.67,197.88Z"/></mask><filter id="luminosity-invert-noclip-2" x="285.18" y="189.05" width="25.11" height="28.29" filterUnits="userSpaceOnUse" color-interpolation-filters="sRGB"><feColorMatrix values="-1 0 0 0 1 0 -1 0 0 1 0 0 -1 0 1 0 0 0 1 0" result="invert"/><feFlood flood-color="#fff" result="bg"/><feBlend in="invert" in2="bg"/></filter><mask id="mask-2" x="285.18" y="189.05" width="25.11" height="28.29" maskUnits="userSpaceOnUse"><path class="cls-2" d="M295.65,196.3c-1.24,2.62-.37,12.78,2.36,14.36,1.4,1.14,2.26.05,2.56-3.41-.28-5.4-1.06-9.57-2.84-11.28C297.21,195.37,296.51,195.49,295.65,196.3Z"/></mask><filter id="luminosity-invert-noclip-3" x="124.42" y="151.04" width="2.56" height="3.06" filterUnits="userSpaceOnUse" color-interpolation-filters="sRGB"><feColorMatrix values="-1 0 0 0 1 0 -1 0 0 1 0 0 -1 0 1 0 0 0 1 0" result="invert"/><feFlood flood-color="#fff" result="bg"/><feBlend in="invert" in2="bg"/></filter><mask id="mask-3" x="124.42" y="151.04" width="2.56" height="3.06" maskUnits="userSpaceOnUse"><path class="cls-3" d="M125.64,151.93c.12-.3.28-.39.49-.27a.39.39,0,0,1,0,.44c0,.07-.11.08-.24,0l-.22,0A.11.11,0,0,1,125.64,151.93Z"/></mask><filter id="luminosity-invert-noclip-4" x="131.25" y="153.09" width="2.77" height="3" filterUnits="userSpaceOnUse" color-interpolation-filters="sRGB"><feColorMatrix values="-1 0 0 0 1 0 -1 0 0 1 0 0 -1 0 1 0 0 0 1 0" result="invert"/><feFlood flood-color="#fff" result="bg"/><feBlend in="invert" in2="bg"/></filter><mask id="mask-4" x="131.25" y="153.09" width="2.77" height="3" maskUnits="userSpaceOnUse"><path class="cls-4" d="M132.61,153.82c-.21.23-.43,1.31-.19,1.55s.23.08.37-.27a2.08,2.08,0,0,0,.05-1.25C132.8,153.77,132.73,153.76,132.61,153.82Z"/></mask></defs><g id="Layer_2" data-name="Layer 2"><g id="Layer_1-2" data-name="Layer 1"><rect class="cls-5" width="500" height="400"/><path d="M90,176.61l2.15-4,0-.07c.39-1.15,0-1.39-1-2-12.13-8.2-5.92-13,13.12-15.52.91,0,1.37-.94,1.43-2.66,2-7.67,7.11-11.83,15.26-12.4,13.44-.88,25,.68,32.32,7.5L166,151.16a4.35,4.35,0,0,0,3.42-.45c7.24-1.92,13.48.54,18.43,8.67,5.43,10.32,6.59,22,.82,28.79-6.18,7.4-15.83,7.66-22.21,2.3-1.8-1.38-3.89-4.67-6.77-8.41-6.57-8-14-10.53-22-9.29-5,.7-8.2,4.39-9.75,10.77-1.42,12.71,2.57,23.26,13.83,30.92,11.19,6.85,22.27,5.76,33.24-3.11,5-5,13.22-3.63,15.52,4.44,3.57,13.33-6.7,25.94-15.67,25.63-17.92,11.28-40,12.82-60.71,3.68-13.95-7.3-22.55-17.32-26.9-29.51q-6.95-22.41,2.86-39.06"/><path class="cls-6" d="M167.49,154.25c6.68-2.2,12.09-1.37,15.68,3.85,8.32,11.44,9.21,24,.76,30.43-6.23,5.06-15.23,2.32-19.76-5.46-6.36-10.77-15.29-15.48-27-13.43-9.46,2.24-13.82,9.9-12,24.15,2.46,12.89,9.5,22.93,25.47,27.42,10.11,1.65,18.81-1.32,26.45-7.76,3.82-3.31,7.81-3.07,10.21,2.24,3.42,9.45-4.24,23.59-13.07,22.57-18.11,11.48-37.16,12.64-57,4.9C98.26,233.92,88.83,219.61,87.39,201c-.13-17.31,7.32-30,19.14-40.13C122.25,149.2,141.77,145.33,167.49,154.25Z"/><path d="M96,172.18a69.56,69.56,0,0,1,9.38-10.24c12.67-.33,28.68,4.1,47.29,12.24l12.48,9.4.31-12.26a16.15,16.15,0,0,0-3.78-12.56l-6.28-9.41-32.6-8.16-15.57,10.73-1,4.34L88.3,163.51Z"/><path class="cls-7" d="M88,161.15c13.13-3.06,25.92-3.15,38.27.56-6.38-3.52-19.82-4.17-35.23-2.25,18.94-8.62,49.57-.92,61.57,14.72-22.21-11.21-42.32-16.87-58.56-12.32a42.38,42.38,0,0,1,10.32-.56A39,39,0,0,0,96,172.18C83.24,166.59,85.92,161.86,88,161.15Z"/><path class="cls-7" d="M122.78,141.19a42.38,42.38,0,0,1,27.83,4.74c3.84,3.63,7.83,8.79,12,16.49,1.58,2.4,2.31,5.5,1.73,9.65l.2,10.16-8.52-6.48-4.64-4.24v-9.6l-.67-5.15c-1.94-9.4-1.53-9.8-10-13.17A81.36,81.36,0,0,0,122.78,141.19Z"/><path class="cls-5" d="M107.21,154.61l1.89-6.38c2.24-4.39,4.68-5.66,10.11-6.23,9-1,17.21-.12,24.48,3,3.64,1.13,5.86,4.17,6.3,9.59a53.64,53.64,0,0,1,0,14.76C138.49,160.27,124.6,154.8,107.21,154.61Z"/><path d="M94.11,183.72c0-4.07,3-4.87,5.32-1.88l0,0,.17.23-.14.06c-3-1.35-3.9-1.16-5,1.55l-.18.12h-.1Z"/><path d="M117.51,183.73c3.22-2.48,5.7-.57,4.72,3.07v0l-.08.28-.14-.07c-.78-3.25-1.45-3.8-4.28-3.05l-.21-.06-.07-.09Z"/><path d="M93.32,199.76c-1.85-8.26-.15-12.86,4.73-14.19,4.54-.3,7.18,3.78,3.85,14.38a.6.6,0,0,1-.61,1,15.3,15.3,0,0,0-9,.24c-.8,0-1-.83-.17-1.15Z"/><path d="M108.07,200.82c-.32.52-.27,1.19.65.93A12.84,12.84,0,0,1,117.4,204c.82.58,1.5.24,1-.56a3,3,0,0,0-1.31-.88c2.86-5.23,3.46-11.54.24-14.66-3.39-2.51-5.9-1.58-7.69,2.1A20.81,20.81,0,0,0,108.07,200.82Z"/><circle class="cls-5" cx="114.17" cy="190.21" r="1.73"/><circle class="cls-5" cx="98.64" cy="189.15" r="1.73"/><path class="cls-5" d="M93.86,192.37a14.57,14.57,0,0,0,.31,6.73,17,17,0,0,1,6.86.41,22.53,22.53,0,0,0,1.19-6.12C99.56,199.27,94.73,198.09,93.86,192.37Z"/><path class="cls-5" d="M110,193.51a14.49,14.49,0,0,0-.55,6.71,16.94,16.94,0,0,1,6.75,1.27,22.27,22.27,0,0,0,2-5.92C114.76,201.07,110.11,199.29,110,193.51Z"/><ellipse cx="105.17" cy="207.04" rx="2.51" ry="4.57" transform="translate(-114.09 283.56) rotate(-82.31)"/><ellipse class="cls-5" cx="105.17" cy="206.84" rx="1.77" ry="2.95" transform="matrix(0.17, -0.99, 0.99, 0.17, -116.7, 274.77)"/><path d="M96.35,210.14l.54,2.38h.48l.34.17c2.09,2.2,3.75,5.51,4.76,10.56,1.09,4.05,4.7,4.42,7.12,1.05a47.73,47.73,0,0,0,6-9.29c.25-.46.69-.65,1.46-.34.86.1,1.18-.17.27-1.3l-1.15-1.53c-.33-.3-.91-.31-1.91.17-5.53,2.06-10.77,1.67-16.57-1.63l-.38-.24Z"/><path class="cls-6" d="M103.16,221c.38,2.68,1,5,3.57,4.29a8.06,8.06,0,0,0,3.37-3.33C107.61,219.73,105.29,219.29,103.16,221Z"/><path d="M102.8,227.94c-.84-.69-1.48.47-.82,1.07,1.42,1.38,2.93,2.1,4.65,1.59a5.14,5.14,0,0,0,2.86-2.12c.61-.59-.44-1.48-.92-.75Q105.93,231.06,102.8,227.94Z"/><path d="M192.55,193.14c1.77-5,14.12-8.18,16-5.09,4.36-2.69,9.71-.91,11.58,5,5.66-8,16.12-8.51,21.64-1.1,2.07-4.23,13.49-7.73,15.24-3.25,3.3-2.93,8.77-2.93,11.66.85,5.05-5.86,15.45-3,15.26,7.1a17.56,17.56,0,0,1,3.57-5.23c6.08-6.31,16.85-7,22.79,1.51,1.4-5.18,3.54-6.62,6-6.25,2.39.57,6.68.73,12.48.57,3.15-.13,5.82.38,6.76,3.2a5,5,0,0,1,1.91-1.14c-7.49-4.16-2.14-13.78,6.69-12.87,5.5-.16,9.11,5.49,5,10.4,1.52.36,2.37,1.88,2.2,5.19a5.93,5.93,0,0,1,1.77-1.87c6.29-3.46,11.85-5.66,14-1.91,5-3.28,11.87-1.2,14.71,4.6,1.28-2.93,4.54-4.28,8-5.48,4-1.6,6.91-1.47,8.31.82a9.61,9.61,0,0,1,9.05-.76c6,2,7.72,9.09,6.45,19.64-.13,1.56-.06,2.73.49,2.95a5.21,5.21,0,0,1,1.14,5.72c-1.95,4.4-12.49,5.17-16.85,1.94-2.87,2.44-11.8,2.6-15.1-.39-1.77,2.81-12.76,3.19-15.73.39-3.4,2.89-12.46,2.76-15.43-.59-2,3.23-14.37,3.78-17.17-.37-1.68,2.41-3.29,3.6-4.81,3.13-2.34-.77-7.89-.83-14.49-.67-3,.32-4.37-1-5.21-2.83-.59-3.93,1.89-9,4.81-14.14a4.37,4.37,0,0,1-2.49-.12,19.2,19.2,0,0,1-4.41,12.61c-6.86,7.29-17.06,7.29-23.06-1.62.89,6.16-9.28,8.89-15.41,4.66-3.58,2.44-11,2.46-13.63,0-4.17,3.15-13.9,2.19-14.9-2.22-5.62,5.23-12.44,5.84-18.28,1.65-4.47-3.28-5.86-8.17-6.22-13.6-2.17,1.62-4.62,1.63-7.28.46l.12,4.09c0,.37.14.68.42.8,3.52,2.32,4.05,5,1.83,7.94-3.09,3.62-14.65,4-18.19,0a6.25,6.25,0,0,1-.29-7.28c.08-.64.56-.87,1.1-1l.33-9.61C192.64,197.31,191.76,195.4,192.55,193.14Z"/><path class="cls-6" d="M196.86,209.4c-2.19,1.73-3,3.45-2,5.13,1,2.65,5.85,3,12.66,2.28,3.94-.53,4.14-3.56,1.83-5.74-1.67-.54-2-1.95-2-3.58l-.12-4.72c.09-3.47.4-5,1-4.15,1.51,2.87,3.07,4.13,4.68,3.86,4.8-.57,6.63-5.41,4.48-10.5-2.57-3.95-6.36-3.69-8.63-.89-.38,1.74-.82,2.49-1.35,1.87.22-3.54-.71-4.22-2.07-3.87-12.21,1.59-12.21,6.68-8.47,8.27A46.55,46.55,0,0,1,196.86,209.4Z"/><g class="cls-8"><path class="cls-6" d="M241.92,200.65c0,2.42-.9,3.67-2.77,3.5l-9,.25c-1.27-.32-1.56.25-1.47,1.18,1.93,5.27,5.41,6.12,10.54,2.36,1.82-.53,2.51,1.74,1.14,4.92-4.27,4.78-9.08,6.2-14.57,3.34-11.19-7.65-6.71-23.69,3.1-27C235.41,187.67,241.43,191.86,241.92,200.65Z"/></g><path class="cls-6" d="M244.77,196.79c-1.43-1.85-1.84-3.6,0-5.13a14.8,14.8,0,0,1,6.47-2.49c1.62-.3,3.18-.5,3.54.94l.12,2.93c.53.79,1,.67,1.47-.16,2.89-4.6,8.75-5.5,10.83-1,1.25,1.44,1.58,1.67,3-.65,4.44-4.76,10.54-2.36,11.27,5-.14,5.18-.34,10.49.17,14.36,1.2,2.16,1.66,4,.57,5.21-3.51,2.06-7,1.83-10.55.45-2.09-1.71-1.47-3.12-.36-5.21a46.69,46.69,0,0,0,0-11.84c-.48-2.13-1.54-2-2.81-1-.72,3.27-.57,7.61-.16,12.27,1.05,2,1.24,3.78.2,5.25-1.82,1.81-5.27,1.92-9.69,1-1.76-.8-2.22-2.41-1.42-4.8a3.82,3.82,0,0,0,1.06-2.89,66.15,66.15,0,0,0-.25-9.32c-.4-3.14-3-2.61-3.17.32l0,9.89c1,2.55,1.13,4.68-.49,6.07-2.31,1.39-5.2,1.47-8.47.73-2.41-.54-3.09-2.11-2.16-4.64a4.7,4.7,0,0,0,1.43-3.79v-9.68Z"/><g class="cls-9"><path class="cls-6" d="M297.93,189.05c-8.37,0-17.4,10.93-10,23.32,3.29,5,8.25,6.08,14.6,3.91,6.23-3.29,8.64-9.21,7.5-17.58Q307.4,189.37,297.93,189.05Z"/></g><path class="cls-6" d="M314,190.15c-3.09,7.17-2.21,9.66.55,9.95,1.08.08,1.58-.92,2.1-2.72.12-.44.49-.91.59-1.43,2.76-.86,3.93-.49,3.34,1.22l-3.85,7.53-3.6,7.23c-1.11,3.11-.79,5.13,2.28,5a58.43,58.43,0,0,1,13.61.23c2,.89,3.37-.46,4.54-2.77,1.25-3.4,1.44-6.14-.08-7.84-1.24-.8-2.41-.8-3.3,2.16-1,1.5-1.84,2.5-3.74,1.71-.79-.1-.73-1.13.73-3.7L332.79,194c1.18-2.77.7-4.41-2.2-4.4-6.39.32-10.65.36-14.45-.57C315.45,188.69,314.73,189.11,314,190.15Z"/><ellipse class="cls-6" cx="342.34" cy="183.16" rx="6.28" ry="4.33" transform="translate(-34.8 90.91) rotate(-14.4)"/><path class="cls-6" d="M337.12,192.2a23.65,23.65,0,0,1,10.47-3.28c.81-.16,1.34.23,1.35,1.64v17.08a4,4,0,0,0,1.4,3.82c1.47,2.31,1.15,4-1.34,5-5.5,1.26-9.55,1.31-11.88-.77-1.64-1.89-1.71-3.61.61-5,.65-.32.94-1.14.83-2.54l-.12-8.91c.35-1.43-.38-2.38-1.74-3.05C335.39,194.4,335.92,193.19,337.12,192.2Z"/><path class="cls-6" d="M354.52,211.34c-1.73,1.73-2.38,4.27,2.14,5.67,4.62.36,7.95.11,9.31-1.06,1.51-1.47,1.26-3,0-4.61-.64-1.32-.72-4-.46-7.39l.06-3.88c-.06-2.78,3.06-3.28,4-1.07a34.71,34.71,0,0,1,.19,12c-1.83,2-2.49,5.06,1,5.77,5.14.7,9.34.65,11.12-1.31,1-1.76.39-3.35-1.1-4.86-.7-.18-.58-3.77-.43-7.45.43-10-2.09-13-5.59-13.7-4.38-1-6.83.46-8.33,3.17-.75,1.27-1,.74-1-1.1.21-3.38-1.52-3.25-3.51-2.65a24.83,24.83,0,0,0-7.69,3.3c-1.78,1.58-1.79,3.14-.06,4.65,1.11.22,1.5,1,1.19,2.46l-.49,11.9Z"/><path class="cls-6" d="M385.5,211.34c-1.74,1.73-2.38,4.27,2.13,5.67,4.63.36,7.95.11,9.32-1.06,1.51-1.47,1.25-3,0-4.61-.65-1.32-.73-4-.46-7.39l.06-3.88c-.06-2.78,3.05-3.28,4-1.07a35,35,0,0,1,.18,12c-1.83,2-2.49,5.06,1,5.77,5.14.7,9.33.65,11.11-1.31,1-1.76.39-3.35-1.1-4.86-.69-.18-.57-3.77-.43-7.45.43-10-2.09-13-5.58-13.7-4.39-1-6.83.46-8.34,3.17-.74,1.27-1,.74-1-1.1.2-3.38-1.53-3.25-3.51-2.65a24.79,24.79,0,0,0-7.7,3.3c-1.77,1.58-1.78,3.14-.06,4.65,1.11.22,1.51,1,1.19,2.46l-.49,11.9Z"/><path d="M114.9,146l.26-.27h0c.06-.08,0-.11,0-.18-.76-.92-.16-1.16,1.39-.91.07,0,.13,0,.17-.18a1.26,1.26,0,0,1,1.48-.61,3.48,3.48,0,0,1,2.36,1.33l.91.58a.33.33,0,0,0,.28,0A1.27,1.27,0,0,1,123,146.9a2.18,2.18,0,0,1-.6,2.27,1.27,1.27,0,0,1-1.8-.33,5,5,0,0,1-.33-.82,1.86,1.86,0,0,0-1.51-1.24,1,1,0,0,0-1,.62,2.52,2.52,0,0,0,.37,2.74,2.18,2.18,0,0,0,2.68.53.73.73,0,0,1,1.11.71c0,1.12-1.13,1.87-1.82,1.64a5.21,5.21,0,0,1-4.85-1.12,4.34,4.34,0,0,1-1.42-2.94,3.85,3.85,0,0,1,1.13-3"/><path class="cls-6" d="M121.48,146a1,1,0,0,1,1.14.67c.39,1.09.17,2.09-.64,2.4a1.09,1.09,0,0,1-1.43-.89,2,2,0,0,0-1.8-1.68c-.8,0-1.32.46-1.5,1.62a2.68,2.68,0,0,0,1.36,2.74,2.58,2.58,0,0,0,2.25,0c.38-.17.68-.06.75.42,0,.81-.88,1.74-1.55,1.46a4.91,4.91,0,0,1-4.58-.94,4,4,0,0,1-1.36-4,4.09,4.09,0,0,1,2.43-2.7A5.05,5.05,0,0,1,121.48,146Z"/><path d="M115.46,145.77a6.22,6.22,0,0,1,1-.59,9.69,9.69,0,0,1,3.42,2.06l.76,1,.31-.95a1.33,1.33,0,0,0,0-1.07l-.27-.88-2.37-1.4-1.47.48-.18.32-1.57.15Z"/><path class="cls-7" d="M115.1,144.72a5.89,5.89,0,0,1,3,.93,5.47,5.47,0,0,0-2.7-1,4.72,4.72,0,0,1,4.48,2.58c-1.48-1.39-2.93-2.3-4.3-2.32a3.66,3.66,0,0,1,.82.19,3.19,3.19,0,0,0-.92.66C114.6,145,114.92,144.73,115.1,144.72Z"/><path class="cls-7" d="M118.28,144a3.43,3.43,0,0,1,2.07,1,5.19,5.19,0,0,1,.56,1.57,1.11,1.11,0,0,1-.08.8l-.22.8-.52-.71-.27-.44.23-.75.06-.42c.07-.78.11-.8-.47-1.26A6.62,6.62,0,0,0,118.28,144Z"/><path class="cls-5" d="M116.75,144.65l.3-.45a.84.84,0,0,1,.93-.26,3.82,3.82,0,0,1,1.85.81.77.77,0,0,1,.27.89,4.4,4.4,0,0,1-.34,1.16A5.55,5.55,0,0,0,116.75,144.65Z"/><path d="M115.05,146.63c.1-.32.35-.31.46,0h0v0h0c-.21-.18-.28-.18-.43,0h0Z"/><path d="M116.88,147.17c.31-.12.46.09.3.35h0v0h0c0-.28,0-.34-.27-.34h0Z"/><path d="M114.62,147.87c0-.69.28-1,.7-1s.47.47,0,1.22a0,0,0,0,1-.07.07,1.21,1.21,0,0,0-.7-.19c-.07,0-.07-.09,0-.1Z"/><path d="M115.75,148.29s0,.09,0,.09a1,1,0,0,1,.62.38c.06.06.12.05.1,0a.21.21,0,0,0-.09-.1,1.06,1.06,0,0,0,.36-1.15c-.2-.27-.42-.26-.65,0A1.69,1.69,0,0,0,115.75,148.29Z"/><circle class="cls-5" cx="116.47" cy="147.6" r="0.14"/><circle class="cls-5" cx="115.28" cy="147.16" r="0.14"/><path class="cls-5" d="M114.83,147.3a1.18,1.18,0,0,0-.13.53,1.42,1.42,0,0,1,.53.2,2.2,2.2,0,0,0,.23-.46C115.12,148,114.77,147.77,114.83,147.3Z"/><path class="cls-5" d="M116.07,147.76a1.18,1.18,0,0,0-.2.52,1.31,1.31,0,0,1,.5.25,1.84,1.84,0,0,0,.29-.42C116.27,148.47,115.94,148.22,116.07,147.76Z"/><ellipse cx="115.38" cy="148.71" rx="0.21" ry="0.37" transform="translate(-67.55 193.02) rotate(-65.81)"/><ellipse class="cls-5" cx="115.38" cy="148.7" rx="0.14" ry="0.24" transform="translate(-69.13 185.85) rotate(-63.57)"/><path d="M114.61,148.75v.2h0l0,0a1.71,1.71,0,0,1,.13.94c0,.34.26.45.53.25a4.23,4.23,0,0,0,.69-.59.08.08,0,0,1,.12,0c.06,0,.1,0,.05-.09l-.05-.15s-.07,0-.16,0a1.52,1.52,0,0,1-1.26-.51l0,0Z"/><path class="cls-6" d="M114.89,149.76c0,.21,0,.41.19.41a.66.66,0,0,0,.34-.18C115.27,149.76,115.1,149.67,114.89,149.76Z"/><path d="M114.71,150.29c0-.07-.13,0-.09.07a.36.36,0,0,0,.32.23.45.45,0,0,0,.28-.1c.06,0,0-.12-.06-.08A.27.27,0,0,1,114.71,150.29Z"/><path d="M122.06,150.34c.34-.47,1.71-.42,1.8,0a.82.82,0,0,1,1,.87,1.41,1.41,0,0,1,2.27.55c.34-.37,1.63-.39,1.67.13a.87.87,0,0,1,1.18.44,1,1,0,0,1,1.36,1.21,1.91,1.91,0,0,1,.53-.44,1.56,1.56,0,0,1,2.3.86c.31-.5.57-.58.82-.46a6.25,6.25,0,0,0,1.27.44c.33.08.59.21.6.53a.71.71,0,0,1,.23-.06c-.64-.65.2-1.48,1.09-1.12a.66.66,0,0,1,.19,1.23c.15.08.19.26.07.6a.75.75,0,0,1,.24-.14c.76-.16,1.4-.22,1.51.23a1.11,1.11,0,0,1,1.38.93,1.26,1.26,0,0,1,1-.32c.47-.05.76.06.83.33a1.06,1.06,0,0,1,1,.2c.56.4.52,1.18.07,2.23-.06.16-.09.28,0,.32a.57.57,0,0,1-.06.63c-.33.39-1.45.15-1.8-.32a1.63,1.63,0,0,1-1.55-.5,1.69,1.69,0,0,1-1.63-.44,1.51,1.51,0,0,1-1.58-.54,1.57,1.57,0,0,1-1.76-.56c-.25.2-.45.27-.59.18a6.64,6.64,0,0,0-1.48-.52.47.47,0,0,1-.45-.45,2.76,2.76,0,0,1,.93-1.31.58.58,0,0,1-.26-.09,2.06,2.06,0,0,1-.84,1.17,1.51,1.51,0,0,1-2.33-.88c-.1.67-1.23.64-1.73,0a1.45,1.45,0,0,1-1.41-.41c-.53.19-1.5-.2-1.47-.69a1.48,1.48,0,0,1-1.94-.39,1.82,1.82,0,0,1-.23-1.59.74.74,0,0,1-.76-.18l-.12.43s0,.07,0,.09c.3.35.27.64,0,.88a1.72,1.72,0,0,1-1.88-.56.67.67,0,0,1,.19-.76.15.15,0,0,1,.15-.07l.32-1A.52.52,0,0,1,122.06,150.34Z"/><path class="cls-6" d="M122,152.15c-.28.11-.42.26-.37.47s.52.49,1.24.62c.43.07.54-.24.37-.54-.16-.1-.15-.26-.1-.43l.13-.49c.11-.36.19-.51.23-.4.06.34.19.52.36.54.51.09.85-.35.78-.94a.53.53,0,0,0-.86-.36c-.09.17-.16.23-.2.15.14-.36.06-.46-.09-.46-1.31-.21-1.47.31-1.13.59A5,5,0,0,1,122,152.15Z"/><g class="cls-10"><path class="cls-6" d="M126.93,152.62c-.08.25-.21.35-.39.28l-.94-.25c-.12-.07-.17,0-.18.08,0,.6.37.8,1,.56.21,0,.21.26,0,.55a1.21,1.21,0,0,1-1.61-.1,1.67,1.67,0,0,1,1.15-2.7A1.15,1.15,0,0,1,126.93,152.62Z"/></g><path class="cls-6" d="M127.34,152.31c-.09-.23-.08-.43.16-.53a1.64,1.64,0,0,1,.75-.06c.17,0,.34.05.33.21l-.07.3q0,.15.15,0c.44-.38,1.08-.3,1.15.23.09.19.11.22.33,0,.61-.36,1.16.08,1,.86a10.63,10.63,0,0,0-.43,1.49c.06.25.05.46-.1.55a1.22,1.22,0,0,1-1.1-.28c-.16-.24-.06-.36.12-.54a4.68,4.68,0,0,0,.36-1.23c0-.23-.09-.25-.26-.19a4.9,4.9,0,0,0-.39,1.27.51.51,0,0,1-.14.54c-.24.14-.6,0-1-.19q-.24-.2,0-.54a.42.42,0,0,0,.2-.26,7.74,7.74,0,0,0,.26-1c0-.34-.23-.36-.34-.07l-.31,1c0,.3,0,.52-.23.62a1.22,1.22,0,0,1-.9-.19c-.23-.13-.25-.31-.08-.54a.48.48,0,0,0,.26-.35l.3-1Z"/><g class="cls-11"><path class="cls-6" d="M133.07,153.14a1.57,1.57,0,0,0-1.75,2.1,1.22,1.22,0,0,0,1.39.85A1.68,1.68,0,0,0,134,154.5,1.28,1.28,0,0,0,133.07,153.14Z"/></g><path class="cls-6" d="M134.69,153.74c-.54.65-.52.93-.24,1,.11,0,.19,0,.3-.22s.07-.08.1-.13c.31,0,.42.07.31.23l-.63.66-.59.64c-.21.28-.24.5.08.59a5.84,5.84,0,0,1,1.4.44c.17.15.36.05.55-.15s.34-.59.23-.81-.22-.16-.4.12c-.15.12-.27.2-.44.06s0-.14.19-.36l1-1.14c.21-.25.21-.44-.09-.52a5.85,5.85,0,0,1-1.48-.5C134.89,153.64,134.8,153.66,134.69,153.74Z"/><ellipse class="cls-6" cx="137.84" cy="153.89" rx="0.47" ry="0.68" transform="translate(-20.98 286.01) rotate(-87.91)"/><path class="cls-6" d="M137,154.66a2.58,2.58,0,0,1,1.18,0c.09,0,.13.07.09.21l-.52,1.77a.41.41,0,0,0,0,.44c.08.28,0,.45-.3.48-.6,0-1-.16-1.2-.45s-.07-.42.22-.5c.07,0,.13-.09.16-.24l.26-.92a.27.27,0,0,0-.08-.37A.27.27,0,0,1,137,154.66Z"/><path class="cls-6" d="M138.23,157.17c-.23.13-.37.37.05.65a1.6,1.6,0,0,0,1,.18.33.33,0,0,0,.15-.48,1.8,1.8,0,0,1,.17-.78l.13-.39a.23.23,0,0,1,.45,0,3.63,3.63,0,0,1-.35,1.24c-.25.15-.41.45-.07.63.51.23.94.35,1.19.2a.4.4,0,0,0,0-.53c-.06,0,.06-.41.19-.79.34-1,.18-1.4-.16-1.58a.73.73,0,0,0-1,.07c-.12.11-.13,0-.07-.14.13-.35-.06-.39-.28-.38a2.39,2.39,0,0,0-.89.1q-.36.16-.15.48c.1.06.12.15,0,.29l-.41,1.21Z"/><path class="cls-6" d="M141.43,158.12c-.23.12-.37.37,0,.65a1.68,1.68,0,0,0,1,.18.33.33,0,0,0,.15-.48,1.78,1.78,0,0,1,.17-.78l.13-.4a.23.23,0,0,1,.45,0,3.69,3.69,0,0,1-.35,1.24c-.25.15-.41.44-.07.62.51.23.94.36,1.19.21a.41.41,0,0,0,0-.54c-.06,0,.06-.4.19-.78.34-1,.18-1.4-.16-1.59a.71.71,0,0,0-1,.08c-.12.11-.13,0-.07-.15.13-.34-.06-.38-.28-.38a2.62,2.62,0,0,0-.89.11q-.36.17-.15.48c.1,0,.12.15,0,.29l-.41,1.21Z"/><path d="M89.15,232.29v0a3.53,3.53,0,0,1,5,.53,3.48,3.48,0,0,1-.49,5l0,0a3.53,3.53,0,0,1-5-.53A3.48,3.48,0,0,1,89.15,232.29Zm3.31,4.07h0a1.77,1.77,0,0,0,.36-2.49,1.72,1.72,0,0,0-2.47-.14h0a1.76,1.76,0,0,0-.36,2.48A1.72,1.72,0,0,0,92.46,236.36Z"/><path d="M95.69,237.06,97,238.3l-.73.77a1.57,1.57,0,0,1,2,.28l-1.34,1.41-.11-.1c-.68-.65-1.45-.61-2.29.27l-1.13,1.19-1.3-1.24Z"/><path d="M98.63,239.78l1.38,1.15L96.63,245l-1.38-1.15Zm1.15-1.44,1.44,1.2-.88,1.05-1.43-1.2Z"/><path d="M97.07,246.64l1.18-.67a3.44,3.44,0,0,0,1.18,1.43,1.18,1.18,0,0,0,1.84-.3l.12-.17a2,2,0,0,1-1.75-.25,2.28,2.28,0,0,1-.46-3.31h0a2.26,2.26,0,0,1,3.22-.75,2,2,0,0,1,.89,1.52l.36-.51,1.47,1-2.29,3.28a2.82,2.82,0,0,1-1.75,1.35,3,3,0,0,1-2.27-.68A5.3,5.3,0,0,1,97.07,246.64Zm5.26-1.07h0a1,1,0,0,0-1.72-1.19v0a1,1,0,0,0,.28,1.43A1,1,0,0,0,102.33,245.57Z"/><path d="M106,245.08l1.54.91-2.67,4.55-1.55-.91Zm.9-1.61,1.61.95-.69,1.18-1.61-.95Z"/><path d="M108.28,246.48l1.61.8-.33.66a1.91,1.91,0,0,1,1.75-.09,1.71,1.71,0,0,1,.69,2.52l-1.53,3.09-1.61-.8,1.27-2.56c.26-.52.13-.93-.25-1.11a.77.77,0,0,0-1.07.45L107.54,252l-1.61-.79Z"/><path d="M112,252.47v0c.4-1,1.36-1.25,2.47-.81a3.64,3.64,0,0,1,1.07.64l0-.08c.19-.51,0-.92-.64-1.17a3.58,3.58,0,0,0-1.42-.25l.14-1.35a5.13,5.13,0,0,1,2.07.38,2.59,2.59,0,0,1,1.58,1.31,2.24,2.24,0,0,1-.1,1.76l-1.11,2.82-1.66-.65.2-.5a1.9,1.9,0,0,1-1.64.06A1.56,1.56,0,0,1,112,252.47Zm3.17.81.09-.22a1.77,1.77,0,0,0-.6-.38c-.49-.19-.86-.06-1,.3v0a.57.57,0,0,0,.37.77A.84.84,0,0,0,115.14,253.28Z"/><path d="M119.41,249.29l1.71.56-2.19,6.77-1.71-.55Z"/><path d="M123.17,255.16v0c.36-1.67,1.6-2.47,2.78-2.21a1.92,1.92,0,0,1,1.37,1.07l.53-2.43,1.75.38-1.51,7-1.75-.38.14-.69a1.85,1.85,0,0,1-1.69.47A2.44,2.44,0,0,1,123.17,255.16Zm3.76.8v0a1.05,1.05,0,1,0-2-.44v0a1.11,1.11,0,0,0,.77,1.39A1.09,1.09,0,0,0,126.93,256Z"/><path d="M129.53,256.5v0a2.61,2.61,0,0,1,2.92-2.39c1.75.23,2.38,1.66,2.18,3.2l-.06.38-3.39-.45a1.06,1.06,0,0,0,1,1,1.49,1.49,0,0,0,1.19-.38l.87,1a2.64,2.64,0,0,1-2.34.77A2.61,2.61,0,0,1,129.53,256.5Zm3.5,0a.93.93,0,0,0-.75-1.07c-.47-.06-.84.28-1,.83Z"/><path d="M138.09,256.69v0a3.5,3.5,0,0,1,3.59-3.53,3.77,3.77,0,0,1,2.67,1l-1.08,1.33a2.29,2.29,0,0,0-1.59-.66,1.78,1.78,0,0,0-1.71,1.86v0a1.79,1.79,0,0,0,1.79,1.91,1.89,1.89,0,0,0,1.06-.28v-.83h-1.3v-1.38l3,0,0,3.07a4.37,4.37,0,0,1-2.88,1A3.45,3.45,0,0,1,138.09,256.69Z"/><path d="M145.42,257.46v0a2.76,2.76,0,0,1,2.57-3,2.73,2.73,0,0,1,3,2.47v0a2.83,2.83,0,0,1-5.63.54Zm3.89-.36v0a1.12,1.12,0,0,0-1.19-1.08,1.09,1.09,0,0,0-1,1.26v0a1.14,1.14,0,0,0,1.19,1.09A1.1,1.1,0,0,0,149.31,257.1Z"/><path d="M151.17,252.32,153,252l.22,1.35-1.85.31Zm.34,1.81,1.77-.29.86,5.21-1.78.29Z"/><path d="M154.82,257.43v0c-.26-1.06.39-1.8,1.56-2.08a3.67,3.67,0,0,1,1.24-.08l0-.09c-.13-.53-.52-.76-1.19-.6a3.49,3.49,0,0,0-1.3.62l-.66-1.19a5.07,5.07,0,0,1,1.91-.88,2.55,2.55,0,0,1,2,.18,2.27,2.27,0,0,1,.93,1.5l.7,3-1.73.41-.12-.53a1.94,1.94,0,0,1-1.31,1A1.58,1.58,0,0,1,154.82,257.43Zm3.07-1.14-.06-.24a1.94,1.94,0,0,0-.71,0c-.51.12-.74.45-.65.83h0a.57.57,0,0,0,.75.42A.84.84,0,0,0,157.89,256.29Z"/><path d="M159.58,252.39l1.69-.6.25.7a1.88,1.88,0,0,1,1.15-1.32,1.71,1.71,0,0,1,2.29,1.25l1.16,3.25-1.7.6-.95-2.69c-.19-.54-.57-.74-1-.6a.78.78,0,0,0-.41,1.09l.95,2.69-1.69.61Z"/><path d="M164.33,248.65l1.7-.78.57,1.24-1.7.78Zm.8,1.66,1.63-.75,2.2,4.79-1.63.75Z"/><path d="M167.59,249.17l1.58-.87.51.93a1.57,1.57,0,0,1,.86-1.79l.94,1.71-.13.07c-.82.45-1,1.2-.42,2.26l.79,1.44-1.57.86Z"/><path d="M172.8,250.61h0c-.63-.89-.3-1.82.68-2.51a3.77,3.77,0,0,1,1.12-.54l-.05-.07c-.32-.45-.77-.51-1.33-.12a3.48,3.48,0,0,0-1,1l-1.06-.85a5.18,5.18,0,0,1,1.46-1.53,2.56,2.56,0,0,1,2-.59,2.26,2.26,0,0,1,1.42,1.05l1.74,2.48-1.45,1-.31-.45a1.92,1.92,0,0,1-.85,1.41A1.56,1.56,0,0,1,172.8,250.61Zm2.42-2.19-.14-.2a1.92,1.92,0,0,0-.65.29c-.42.3-.52.69-.29,1h0a.57.57,0,0,0,.85.11A.83.83,0,0,0,175.22,248.42Z"/></g></g></svg>