<?xml version="1.0" encoding="utf-8"?>
<!-- Generator: Adobe Illustrator 25.0.0, SVG Export Plug-In . SVG Version: 6.00 Build 0)  -->
<svg version="1.1" id="Layer_1" xmlns="http://www.w3.org/2000/svg" xmlns:xlink="http://www.w3.org/1999/xlink" x="0px" y="0px"
	 viewBox="0 0 500 400" style="enable-background:new 0 0 500 400;" xml:space="preserve">
<style type="text/css">
	.st0{fill-rule:evenodd;clip-rule:evenodd;fill:#000F3F;}
	.st1{fill-rule:evenodd;clip-rule:evenodd;fill:#FFFFFF;}
</style>
<rect x="-3.7" y="-4.1" class="st0" width="507.3" height="406.9"/>
<g id="Layer_2_1_">
	<g id="OBJECTS">
		<path class="st1" d="M399.4,217.2h-8.1v-3.5c0-2.9-1.4-5.5-3.7-7.3c-5-4.1-12.2-4.1-17.2,0c-2.2,1.7-3.5,4.4-3.6,7.2v3.5h-8.1
			v-34.3h8.1V200c7.5-4.6,16.8-4.6,24.3,0v-17.1h8.1L399.4,217.2z"/>
		<path class="st1" d="M354.9,217.2h-20.3c-5.2,0.1-10.3-1.7-14.3-5c-6.7-5.2-7.9-14.8-2.8-21.5c0.8-1,1.7-2,2.8-2.8
			c4-3.4,9.1-5.2,14.3-5.1h20.3v6.9h-20.3c-3.2,0-6.2,1.1-8.6,3.2c-2.2,1.7-3.6,4.4-3.6,7.3c0,2.9,1.3,5.6,3.6,7.3
			c2.4,2,5.5,3,8.6,3h20.3V217.2z"/>
		<path class="st1" d="M311.3,217.2H291c-5.2,0.1-10.3-1.7-14.3-5c-6.7-5.2-7.9-14.8-2.8-21.5c0.8-1,1.7-2,2.8-2.8
			c4-3.4,9.1-5.2,14.3-5.1h20.3v6.9H291c-2.5,0-4.9,0.6-7,1.9c-2,1.1-3.6,2.9-4.5,5h19.6v6.8h-19.6c0.9,2.1,2.5,3.9,4.5,5
			c2.1,1.3,4.5,1.9,7,1.9h20.3L311.3,217.2z"/>
		<path class="st1" d="M269.4,189.7h-8.1c-2.1,0-4.1,0.7-5.7,2.1c-1.5,1.2-2.4,2.9-2.4,4.8v20.6H245v-20.6c0-1.9-1-3.7-2.5-4.8
			c-1.6-1.3-3.6-2.1-5.7-2.1h-7.9v-6.9h8.1c4.5-0.1,8.9,1.5,12.1,4.7c3.3-3.1,7.7-4.8,12.2-4.7h8.1V189.7z"/>
		<path class="st1" d="M183.9,217.2h-20.3c-5.2,0.1-10.3-1.7-14.3-5c-6.7-5.2-7.9-14.8-2.8-21.5c0.8-1,1.7-2,2.8-2.8
			c4-3.4,9.1-5.2,14.3-5.1h20.3v6.9h-20.3c-2.5,0-4.9,0.6-7,1.9c-2,1.1-3.6,2.9-4.5,5h19.6v6.8h-19.6c0.9,2.1,2.5,3.9,4.5,5
			c2.1,1.3,4.5,1.9,7,1.9h20.3V217.2z"/>
		<path class="st1" d="M140.3,217.2h-8v-3.5c-3.7,2.3-7.9,3.5-12.3,3.5c-5.2,0.1-10.3-1.7-14.3-5c-0.8-0.7-5.4-5.4-5.2-12.7
			c0.2-6.6,4.3-10.7,5.2-11.6c4-3.4,9.1-5.1,14.3-5h20.3v6.9h-20.3c-3.2,0-6.2,1.1-8.6,3.2c-4,3.1-4.7,8.9-1.6,12.9
			c0.5,0.6,1,1.1,1.6,1.6c2.4,2,5.5,3.1,8.6,3c3.1,0.1,6.2-1,8.6-3c2.3-1.8,3.7-4.5,3.7-7.4h8.1L140.3,217.2z"/>
		<path class="st1" d="M227.5,200c0,4.7-2.2,9.2-6,12.1c-8.3,6.7-20.2,6.7-28.6,0c-6.7-5.1-8-14.7-2.8-21.4c0.8-1.1,1.8-2,2.8-2.8
			c8.3-6.7,20.2-6.8,28.5-0.1C225.2,190.8,227.4,195.2,227.5,200z M219.4,200c-0.1-2.8-1.4-5.4-3.6-7.1c-2.4-2.1-5.4-3.2-8.6-3.2
			c-3.2,0-6.2,1.1-8.6,3.2c-4,3.1-4.7,8.9-1.6,12.9c0.5,0.6,1,1.1,1.6,1.6c5,4,12.2,4,17.2,0C218.1,205.6,219.4,202.9,219.4,200
			L219.4,200z"/>
	</g>
</g>
</svg>
